<?xml version="1.0" ?><svg height="512" id="svg8" version="1.1" viewBox="0 0 135.46666 135.46667" width="512" xmlns="http://www.w3.org/2000/svg" xmlns:cc="http://creativecommons.org/ns#" xmlns:dc="http://purl.org/dc/elements/1.1/" xmlns:inkscape="http://www.inkscape.org/namespaces/inkscape" xmlns:rdf="http://www.w3.org/1999/02/22-rdf-syntax-ns#" xmlns:sodipodi="http://sodipodi.sourceforge.net/DTD/sodipodi-0.dtd" xmlns:svg="http://www.w3.org/2000/svg"><defs id="defs2"/><g id="layer1"><circle cx="67.73333" cy="67.73333" id="path848" r="67.20417" style="fill:#07689f;stroke:none;stroke-width:1.05833;stroke-linecap:round;stroke-linejoin:round;fill-opacity:1"/><path d="m 17.77606,48.53143 c -0.998599,2.959564 8.798851,53.57296 50.280913,48.301721 3.45642,-0.439216 -0.459977,-13.432071 1.405383,-14.656612 2.045875,-1.343043 7.784374,2.812183 19.259921,14.954405 1.62041,1.714538 13.766693,0.04587 15.515213,-0.317166 C 106.16588,96.413391 104.0685,88.443585 88.675335,74.567546 92.722043,68.52302 106.96426,49.721434 102.68729,47.484039 100.09975,46.130426 89.794475,45.957121 87.460305,47.36479 85.126142,48.772454 73.954809,73.110441 69.836028,71.383448 65.717242,69.656453 70.858152,51.438591 68.871449,48.238465 66.884738,45.038337 49.573531,43.808408 48.018579,48.27633 46.463635,52.744254 54.65957,47.42156 51.784182,74.940929 49.481736,74.595325 44.107215,71.219682 40.151984,62.500879 36.196754,53.78208 35.09953,49.296141 33.364351,47.588261 31.629174,45.880382 18.998946,45.793681 17.77606,48.53143 Z" id="path881" style="fill:#ffffff;stroke:none;stroke-width:0.264584px;stroke-linecap:butt;stroke-linejoin:miter;stroke-opacity:1"/></g></svg>